<?xml version="1.0" encoding="UTF-8"?>
<!DOCTYPE svg PUBLIC "-//W3C//DTD SVG 1.1//EN" "http://www.w3.org/Graphics/SVG/1.1/DTD/svg11.dtd">
<svg version="1.1" xmlns="http://www.w3.org/2000/svg" xmlns:xlink="http://www.w3.org/1999/xlink" x="0" y="0" width="146" height="52" viewBox="0, 0, 146, 52">
  <g id="Layer_2">
    <path d="M25.901,45.411 C25.901,45.411 14.844,13.643 7.669,12.726 C-0.058,11.738 2.981,20.312 4.829,22.899 C6.651,25.449 27.768,55.501 43.821,49.414 C49.96,47.086 48.574,34.656 46.422,28.319 C44.711,23.28 37.238,9.961 29.961,4.138 C28.848,3.248 27.424,2.807 25.644,2.781 C24.09,2.759 22.737,3.247 21.697,4.13 C14.432,9.967 7.065,23.273 5.354,28.311 C3.201,34.648 1.816,47.079 7.955,49.407 C24.008,55.493 45.125,25.441 46.947,22.891 C48.794,20.305 51.834,11.73 44.106,12.718 C36.932,13.636 25.847,45.411 25.847,45.411" fill-opacity="0" stroke="#FF385C" stroke-width="3"/>
    <g>
      <path d="M57.202,22.246 Q58.747,20.277 62.507,20.277 Q64.954,20.277 66.855,21.248 Q68.755,22.219 68.755,24.912 L68.755,31.748 Q68.755,32.459 68.782,33.471 Q68.823,34.236 69.015,34.51 Q69.206,34.783 69.589,34.961 L69.589,35.535 L65.351,35.535 Q65.173,35.084 65.105,34.688 Q65.036,34.291 64.995,33.785 Q64.189,34.66 63.136,35.275 Q61.878,36 60.292,36 Q58.269,36 56.949,34.845 Q55.63,33.689 55.63,31.57 Q55.63,28.822 57.749,27.592 Q58.911,26.922 61.167,26.635 L62.493,26.471 Q63.573,26.334 64.038,26.129 Q64.872,25.773 64.872,25.021 Q64.872,24.105 64.237,23.757 Q63.601,23.408 62.37,23.408 Q60.989,23.408 60.415,24.092 Q60.005,24.598 59.868,25.459 L56.109,25.459 Q56.232,23.504 57.202,22.246 z M60.101,32.719 Q60.648,33.17 61.441,33.17 Q62.698,33.17 63.758,32.432 Q64.818,31.693 64.859,29.738 L64.859,28.289 Q64.489,28.521 64.113,28.665 Q63.737,28.809 63.081,28.932 L62.206,29.096 Q60.976,29.314 60.443,29.629 Q59.54,30.162 59.54,31.283 Q59.54,32.281 60.101,32.719 z" fill="#FF385C"/>
      <path d="M72.296,15.383 L76.193,15.383 L76.193,35.535 L72.296,35.535 z" fill="#FF385C"/>
      <path d="M83.999,20.633 L83.999,35.535 L80.048,35.535 L80.048,20.633 z M83.999,15.26 L83.999,18.855 L80.048,18.855 L80.048,15.26 z" fill="#FF385C"/>
      <path d="M95.866,35.932 Q94.021,35.932 92.9,35.193 Q92.23,34.756 91.45,33.662 L91.45,35.535 L87.636,35.535 L87.636,15.41 L91.519,15.41 L91.519,22.574 Q92.257,21.535 93.146,20.988 Q94.198,20.305 95.825,20.305 Q98.765,20.305 100.426,22.424 Q102.087,24.543 102.087,27.893 Q102.087,31.365 100.446,33.648 Q98.806,35.932 95.866,35.932 z M97.999,28.303 Q97.999,26.717 97.589,25.678 Q96.81,23.709 94.718,23.709 Q92.599,23.709 91.806,25.637 Q91.396,26.662 91.396,28.289 Q91.396,30.203 92.243,31.461 Q93.091,32.719 94.827,32.719 Q96.331,32.719 97.165,31.502 Q97.999,30.285 97.999,28.303 z" fill="#FF385C"/>
      <path d="M113.243,24.734 Q112.751,23.654 111.316,23.654 Q109.648,23.654 109.073,24.734 Q108.759,25.35 108.759,26.566 L108.759,35.535 L104.808,35.535 L104.808,20.66 L108.595,20.66 L108.595,22.834 Q109.32,21.672 109.962,21.18 Q111.097,20.305 112.902,20.305 Q114.611,20.305 115.663,21.057 Q116.511,21.754 116.948,22.848 Q117.714,21.535 118.849,20.92 Q120.052,20.305 121.529,20.305 Q122.513,20.305 123.47,20.688 Q124.427,21.07 125.206,22.027 Q125.835,22.807 126.054,23.941 Q126.191,24.693 126.191,26.143 L126.163,35.535 L122.171,35.535 L122.171,26.047 Q122.171,25.199 121.898,24.652 Q121.378,23.613 119.984,23.613 Q118.37,23.613 117.755,24.953 Q117.441,25.664 117.441,26.662 L117.441,35.535 L113.517,35.535 L113.517,26.662 Q113.517,25.336 113.243,24.734 z" fill="#FF385C"/>
      <path d="M137.866,35.932 Q136.021,35.932 134.9,35.193 Q134.23,34.756 133.45,33.662 L133.45,35.535 L129.636,35.535 L129.636,15.41 L133.519,15.41 L133.519,22.574 Q134.257,21.535 135.146,20.988 Q136.198,20.305 137.825,20.305 Q140.765,20.305 142.426,22.424 Q144.087,24.543 144.087,27.893 Q144.087,31.365 142.446,33.648 Q140.806,35.932 137.866,35.932 z M139.999,28.303 Q139.999,26.717 139.589,25.678 Q138.81,23.709 136.718,23.709 Q134.599,23.709 133.806,25.637 Q133.396,26.662 133.396,28.289 Q133.396,30.203 134.243,31.461 Q135.091,32.719 136.827,32.719 Q138.331,32.719 139.165,31.502 Q139.999,30.285 139.999,28.303 z" fill="#FF385C"/>
    </g>
  </g>
</svg>
