<?xml version="1.0" encoding="UTF-8"?>
<!DOCTYPE svg PUBLIC "-//W3C//DTD SVG 1.1//EN" "http://www.w3.org/Graphics/SVG/1.1/DTD/svg11.dtd">
<svg version="1.1" xmlns="http://www.w3.org/2000/svg" xmlns:xlink="http://www.w3.org/1999/xlink" x="0" y="0" width="163" height="52" viewBox="0, 0, 163, 52">
  <g id="Layer_2">
    <path d="M25.901,45.411 C25.901,45.411 14.844,13.643 7.669,12.726 C-0.058,11.738 2.981,20.312 4.829,22.899 C6.651,25.449 27.768,55.501 43.821,49.414 C49.96,47.086 48.574,34.656 46.422,28.319 C44.711,23.28 37.238,9.961 29.961,4.138 C28.848,3.248 27.424,2.807 25.644,2.781 C24.09,2.759 22.737,3.247 21.697,4.13 C14.432,9.967 7.065,23.273 5.354,28.311 C3.201,34.648 1.816,47.079 7.955,49.407 C24.008,55.493 45.125,25.441 46.947,22.891 C48.794,20.305 51.834,11.73 44.106,12.718 C36.932,13.636 25.847,45.411 25.847,45.411" fill-opacity="0" stroke="#FF385C" stroke-width="3"/>
    <g>
      <path d="M65.334,20.871 Q67.009,18.726 71.084,18.726 Q73.737,18.726 75.796,19.784 Q77.856,20.841 77.856,23.776 L77.856,31.223 Q77.856,31.998 77.886,33.1 Q77.93,33.934 78.138,34.232 Q78.345,34.53 78.76,34.723 L78.76,35.349 L74.166,35.349 Q73.974,34.857 73.9,34.425 Q73.825,33.993 73.781,33.442 Q72.907,34.396 71.766,35.066 Q70.402,35.855 68.683,35.855 Q66.49,35.855 65.06,34.597 Q63.63,33.338 63.63,31.029 Q63.63,28.035 65.927,26.695 Q67.187,25.965 69.632,25.652 L71.069,25.474 Q72.24,25.325 72.744,25.101 Q73.648,24.714 73.648,23.895 Q73.648,22.897 72.959,22.517 Q72.269,22.137 70.936,22.137 Q69.439,22.137 68.817,22.882 Q68.372,23.433 68.224,24.371 L64.149,24.371 Q64.282,22.241 65.334,20.871 z M68.476,32.281 Q69.069,32.772 69.928,32.772 Q71.291,32.772 72.44,31.968 Q73.588,31.163 73.633,29.033 L73.633,27.455 Q73.233,27.708 72.825,27.864 Q72.418,28.021 71.706,28.155 L70.758,28.333 Q69.424,28.572 68.846,28.914 Q67.868,29.495 67.868,30.717 Q67.868,31.804 68.476,32.281 z" fill="#FF385C"/>
      <path d="M81.694,13.394 L85.918,13.394 L85.918,35.349 L81.694,35.349 z" fill="#FF385C"/>
      <path d="M94.379,19.113 L94.379,35.349 L90.097,35.349 L90.097,19.113 z M94.379,13.26 L94.379,17.177 L90.097,17.177 L90.097,13.26 z" fill="#FF385C"/>
      <path d="M107.242,35.781 Q105.241,35.781 104.026,34.976 Q103.3,34.5 102.456,33.308 L102.456,35.349 L98.321,35.349 L98.321,13.424 L102.53,13.424 L102.53,21.229 Q103.33,20.097 104.293,19.501 Q105.434,18.756 107.198,18.756 Q110.384,18.756 112.184,21.065 Q113.985,23.373 113.985,27.023 Q113.985,30.806 112.206,33.293 Q110.428,35.781 107.242,35.781 z M109.554,27.469 Q109.554,25.742 109.109,24.61 Q108.265,22.465 105.997,22.465 Q103.7,22.465 102.841,24.565 Q102.396,25.682 102.396,27.455 Q102.396,29.54 103.315,30.91 Q104.234,32.281 106.116,32.281 Q107.746,32.281 108.65,30.955 Q109.554,29.629 109.554,27.469 z" fill="#FF385C"/>
      <path d="M126.077,23.582 Q125.543,22.405 123.987,22.405 Q122.179,22.405 121.557,23.582 Q121.216,24.252 121.216,25.578 L121.216,35.349 L116.934,35.349 L116.934,19.143 L121.038,19.143 L121.038,21.512 Q121.824,20.245 122.52,19.709 Q123.75,18.756 125.706,18.756 Q127.559,18.756 128.7,19.575 Q129.619,20.335 130.093,21.526 Q130.923,20.097 132.153,19.426 Q133.457,18.756 135.057,18.756 Q136.124,18.756 137.161,19.173 Q138.199,19.59 139.043,20.633 Q139.725,21.482 139.962,22.718 Q140.11,23.537 140.11,25.116 L140.081,35.349 L135.754,35.349 L135.754,25.012 Q135.754,24.088 135.457,23.493 Q134.894,22.361 133.383,22.361 Q131.634,22.361 130.967,23.82 Q130.626,24.595 130.626,25.682 L130.626,35.349 L126.373,35.349 L126.373,25.682 Q126.373,24.237 126.077,23.582 z" fill="#FF385C"/>
      <path d="M152.766,35.781 Q150.765,35.781 149.55,34.976 Q148.824,34.5 147.979,33.308 L147.979,35.349 L143.845,35.349 L143.845,13.424 L148.053,13.424 L148.053,21.229 Q148.853,20.097 149.817,19.501 Q150.958,18.756 152.721,18.756 Q155.907,18.756 157.708,21.065 Q159.508,23.373 159.508,27.023 Q159.508,30.806 157.73,33.293 Q155.952,35.781 152.766,35.781 z M155.077,27.469 Q155.077,25.742 154.633,24.61 Q153.788,22.465 151.521,22.465 Q149.224,22.465 148.364,24.565 Q147.92,25.682 147.92,27.455 Q147.92,29.54 148.839,30.91 Q149.757,32.281 151.639,32.281 Q153.269,32.281 154.173,30.955 Q155.077,29.629 155.077,27.469 z" fill="#FF385C"/>
    </g>
  </g>
</svg>
