<?xml version="1.0" encoding="UTF-8"?>
<!DOCTYPE svg PUBLIC "-//W3C//DTD SVG 1.1//EN" "http://www.w3.org/Graphics/SVG/1.1/DTD/svg11.dtd">
<svg version="1.1" xmlns="http://www.w3.org/2000/svg" xmlns:xlink="http://www.w3.org/1999/xlink" x="0" y="0" width="354" height="204" viewBox="0, 0, 354, 204">
  <g id="Layer_1">
    <g>
      <path d="M10.885,69.315 L10.951,52.698 L101.447,7.61 L192.332,52.698 L191.838,155.721" fill-opacity="0" stroke="#FF385C" stroke-width="10.7"/>
      <g>
        <path d="M318.858,164.206 L342.716,156.347 L319.573,146.58 z" fill="#FF385C"/>
        <path d="M318.858,164.206 L342.716,156.347 L319.573,146.58 z" fill-opacity="0" stroke="#FF385C" stroke-width="10.7"/>
      </g>
    </g>
    <path d="M64.07,106.078 L52.098,106.078 L52.098,128.65 L40.766,128.65 L40.766,71.086 L67.985,71.086 Q73.82,71.204 76.964,72.57 Q80.107,73.937 82.291,76.593 Q84.098,78.78 85.152,81.435 Q86.206,84.091 86.206,87.489 Q86.206,91.589 84.211,95.553 Q82.215,99.517 77.622,101.157 Q81.462,102.758 83.062,105.707 Q84.662,108.655 84.662,114.708 L84.662,118.574 Q84.662,122.519 84.964,123.925 Q85.415,126.151 87.072,127.205 L87.072,128.65 L74.31,128.65 Q73.782,126.736 73.557,125.565 Q73.105,123.143 73.067,120.605 L72.992,115.255 Q72.917,109.748 71.053,107.913 Q69.19,106.078 64.07,106.078 z M71.11,95.611 Q74.573,93.971 74.573,89.129 Q74.573,83.896 71.222,82.099 Q69.34,81.084 65.576,81.084 L52.098,81.084 L52.098,96.549 L65.237,96.549 Q69.152,96.549 71.11,95.611 z" fill="#FF385C"/>
    <path d="M130.441,116.153 Q130.027,119.941 126.638,123.846 Q121.368,130.056 111.881,130.056 Q104.05,130.056 98.065,124.823 Q92.079,119.59 92.079,107.796 Q92.079,96.744 97.481,90.847 Q102.883,84.95 111.504,84.95 Q116.624,84.95 120.728,86.942 Q124.831,88.933 127.504,93.229 Q129.914,97.017 130.629,102.016 Q131.043,104.945 130.968,110.451 L102.883,110.451 Q103.109,116.856 106.761,119.434 Q108.982,121.035 112.107,121.035 Q115.42,121.035 117.49,119.082 Q118.62,118.028 119.485,116.153 z M119.824,103.11 Q119.561,98.697 117.245,96.412 Q114.93,94.127 111.504,94.127 Q107.777,94.127 105.726,96.549 Q103.674,98.97 103.147,103.11 z" fill="#FF385C"/>
    <path d="M157.509,94.323 Q152.05,94.323 150.017,99.126 Q148.963,101.665 148.963,105.609 L148.963,128.65 L138.271,128.65 L138.271,86.161 L148.624,86.161 L148.624,92.37 Q150.695,89.09 152.539,87.645 Q155.852,85.067 160.934,85.067 Q167.297,85.067 171.344,88.523 Q175.391,91.98 175.391,99.985 L175.391,128.65 L164.398,128.65 L164.398,102.758 Q164.398,99.4 163.532,97.603 Q161.951,94.323 157.509,94.323 z" fill="#FF385C"/>
    <path d="M192.577,155.969" fill-opacity="0" stroke="#FF385C" stroke-width="10.7"/>
    <path d="M186.963,154.479 L314.951,155.601" fill-opacity="0" stroke="#FF385C" stroke-width="10.7"/>
  </g>
  <g id="Layer_2">
    <path d="M180.978,90.531 L206.742,90.86" fill-opacity="0" stroke="#FF385C" stroke-width="8"/>
    <path d="M246.283,129.348 Q235.468,129.348 229.753,123.242 Q222.087,115.751 222.087,101.657 Q222.087,87.28 229.753,80.073 Q235.468,73.967 246.283,73.967 Q257.098,73.967 262.813,80.073 Q270.444,87.28 270.444,101.657 Q270.444,115.751 262.813,123.242 Q257.098,129.348 246.283,129.348 z M256.242,115.289 Q259.904,110.497 259.904,101.657 Q259.904,92.853 256.225,88.042 Q252.546,83.232 246.283,83.232 Q240.02,83.232 236.29,88.025 Q232.56,92.817 232.56,101.657 Q232.56,110.497 236.29,115.289 Q240.02,120.082 246.283,120.082 Q252.546,120.082 256.242,115.289 z" fill="#FF385C"/>
    <path d="M302.085,122.425 Q301.949,122.603 301.4,123.49 Q300.853,124.378 300.101,125.052 Q297.807,127.182 295.668,127.963 Q293.53,128.744 290.655,128.744 Q282.373,128.744 279.498,122.567 Q277.89,119.159 277.89,112.52 L277.89,89.197 L287.883,89.197 L287.883,112.52 Q287.883,115.822 288.636,117.491 Q289.97,120.437 293.872,120.437 Q298.868,120.437 300.716,116.248 Q301.674,113.976 301.674,110.249 L301.674,89.197 L311.565,89.197 L311.565,127.892 L302.085,127.892 z" fill="#FF385C"/>
    <path d="M343.034,120.121 L343.034,128.809 L337.527,129.013 Q329.287,129.299 326.269,126.158 Q324.311,124.159 324.311,119.998 L324.311,92.627 L318.111,92.627 L318.111,84.346 L324.311,84.346 L324.311,71.946 L335.814,71.946 L335.814,84.346 L343.034,84.346 L343.034,92.627 L335.814,92.627 L335.814,116.123 Q335.814,118.856 336.508,119.529 Q337.201,120.202 340.75,120.202 Q341.28,120.202 341.872,120.182 Q342.463,120.161 343.034,120.121 z" fill="#FF385C"/>
  </g>
  <g id="Layer_3">
    <g>
      <path d="M12.576,192.512 L5.728,192.512 L5.728,157.344 L16.417,157.344 L22.812,184.996 L29.158,157.344 L39.728,157.344 L39.728,192.512 L32.88,192.512 L32.88,168.724 Q32.88,167.698 32.904,165.849 Q32.928,164 32.928,162.998 L26.271,192.512 L19.137,192.512 L12.528,162.998 Q12.528,164 12.552,165.849 Q12.576,167.698 12.576,168.724 z" fill="#FF385C"/>
      <path d="M46.981,169.321 Q49.677,165.885 56.238,165.885 Q60.509,165.885 63.825,167.579 Q67.142,169.273 67.142,173.973 L67.142,185.903 Q67.142,187.143 67.189,188.909 Q67.261,190.245 67.595,190.722 Q67.929,191.2 68.597,191.51 L68.597,192.512 L61.201,192.512 Q60.89,191.724 60.771,191.032 Q60.652,190.341 60.58,189.458 Q59.173,190.985 57.335,192.058 Q55.14,193.323 52.373,193.323 Q48.842,193.323 46.539,191.307 Q44.237,189.291 44.237,185.593 Q44.237,180.797 47.935,178.65 Q49.963,177.481 53.9,176.98 L56.214,176.693 Q58.099,176.455 58.91,176.097 Q60.366,175.476 60.366,174.164 Q60.366,172.566 59.256,171.957 Q58.147,171.349 55.999,171.349 Q53.59,171.349 52.588,172.542 Q51.872,173.425 51.633,174.928 L45.072,174.928 Q45.287,171.516 46.981,169.321 z M52.039,187.597 Q52.993,188.384 54.377,188.384 Q56.572,188.384 58.421,187.096 Q60.27,185.807 60.342,182.396 L60.342,179.866 Q59.697,180.272 59.041,180.523 Q58.385,180.773 57.24,180.988 L55.713,181.274 Q53.566,181.656 52.635,182.205 Q51.061,183.135 51.061,185.092 Q51.061,186.833 52.039,187.597 z" fill="#FF385C"/>
      <path d="M85.417,171.54 Q81.958,171.54 80.67,174.474 Q80.001,176.025 80.001,178.435 L80.001,192.512 L73.226,192.512 L73.226,166.553 L79.787,166.553 L79.787,170.347 Q81.099,168.343 82.268,167.46 Q84.368,165.885 87.589,165.885 Q91.621,165.885 94.186,167.997 Q96.75,170.108 96.75,174.999 L96.75,192.512 L89.784,192.512 L89.784,176.693 Q89.784,174.641 89.235,173.544 Q88.233,171.54 85.417,171.54 z" fill="#FF385C"/>
      <path d="M104.004,169.321 Q106.7,165.885 113.261,165.885 Q117.532,165.885 120.848,167.579 Q124.164,169.273 124.164,173.973 L124.164,185.903 Q124.164,187.143 124.212,188.909 Q124.284,190.245 124.618,190.722 Q124.952,191.2 125.62,191.51 L125.62,192.512 L118.224,192.512 Q117.913,191.724 117.794,191.032 Q117.675,190.341 117.603,189.458 Q116.196,190.985 114.358,192.058 Q112.163,193.323 109.396,193.323 Q105.865,193.323 103.562,191.307 Q101.26,189.291 101.26,185.593 Q101.26,180.797 104.958,178.65 Q106.986,177.481 110.923,176.98 L113.237,176.693 Q115.122,176.455 115.933,176.097 Q117.389,175.476 117.389,174.164 Q117.389,172.566 116.279,171.957 Q115.17,171.349 113.022,171.349 Q110.613,171.349 109.61,172.542 Q108.895,173.425 108.656,174.928 L102.095,174.928 Q102.31,171.516 104.004,169.321 z M109.062,187.597 Q110.016,188.384 111.4,188.384 Q113.595,188.384 115.444,187.096 Q117.293,185.807 117.365,182.396 L117.365,179.866 Q116.72,180.272 116.064,180.523 Q115.408,180.773 114.263,180.988 L112.736,181.274 Q110.589,181.656 109.658,182.205 Q108.084,183.135 108.084,185.092 Q108.084,186.833 109.062,187.597 z" fill="#FF385C"/>
      <path d="M137.549,197.069 Q138.647,197.999 141.247,197.999 Q144.922,197.999 146.162,195.542 Q146.974,193.967 146.974,190.245 L146.974,188.575 Q145.995,190.245 144.874,191.08 Q142.846,192.631 139.601,192.631 Q134.591,192.631 131.597,189.112 Q128.602,185.593 128.602,179.58 Q128.602,173.782 131.489,169.834 Q134.376,165.885 139.673,165.885 Q141.629,165.885 143.085,166.482 Q145.566,167.508 147.093,170.251 L147.093,166.505 L153.702,166.505 L153.702,191.176 Q153.702,196.21 152.008,198.763 Q149.097,203.153 140.842,203.153 Q135.855,203.153 132.706,201.196 Q129.557,199.24 129.223,195.351 L136.619,195.351 Q136.905,196.544 137.549,197.069 z M136.404,183.636 Q137.788,186.929 141.367,186.929 Q143.753,186.929 145.399,185.127 Q147.045,183.326 147.045,179.389 Q147.045,175.691 145.482,173.759 Q143.92,171.826 141.295,171.826 Q137.716,171.826 136.356,175.19 Q135.641,176.98 135.641,179.604 Q135.641,181.871 136.404,183.636 z" fill="#FF385C"/>
      <path d="M182.309,184.877 Q182.046,187.191 179.899,189.577 Q176.559,193.371 170.546,193.371 Q165.584,193.371 161.79,190.174 Q157.997,186.976 157.997,179.771 Q157.997,173.019 161.42,169.416 Q164.844,165.814 170.308,165.814 Q173.553,165.814 176.153,167.03 Q178.754,168.247 180.448,170.872 Q181.975,173.186 182.428,176.24 Q182.691,178.029 182.643,181.393 L164.844,181.393 Q164.987,185.306 167.302,186.881 Q168.709,187.859 170.689,187.859 Q172.789,187.859 174.101,186.666 Q174.817,186.022 175.366,184.877 z M175.581,176.908 Q175.414,174.212 173.946,172.816 Q172.479,171.42 170.308,171.42 Q167.946,171.42 166.645,172.9 Q165.345,174.379 165.011,176.908 z" fill="#FF385C"/>
    </g>
  </g>
</svg>
