<?xml version="1.0" encoding="UTF-8"?>
<!DOCTYPE svg PUBLIC "-//W3C//DTD SVG 1.1//EN" "http://www.w3.org/Graphics/SVG/1.1/DTD/svg11.dtd">
<svg version="1.1" xmlns="http://www.w3.org/2000/svg" xmlns:xlink="http://www.w3.org/1999/xlink" x="0" y="0" width="354" height="204" viewBox="0, 0, 354, 204">
  <g id="Layer_1">
    <g>
      <path d="M11.475,167.749 L11.475,51.733 L101.971,6.645 L192.856,51.733 L192.605,76.678 C192.485,95.128 184.167,156.858 250.035,159.654 C265.241,160.299 289.737,161.703 315.101,162.878" fill-opacity="0" stroke="#FF385C" stroke-width="10.7"/>
      <path d="M314.744,171.691 L338.602,163.832 L315.459,154.065 z" fill="#FF385C" fill-opacity="1" stroke="#FF385C" stroke-width="10.7" stroke-opacity="1"/>
    </g>
    <path d="M64.07,106.078 L52.098,106.078 L52.098,128.65 L40.766,128.65 L40.766,71.086 L67.985,71.086 Q73.82,71.204 76.964,72.57 Q80.107,73.937 82.291,76.593 Q84.098,78.78 85.152,81.435 Q86.206,84.091 86.206,87.489 Q86.206,91.589 84.211,95.553 Q82.215,99.517 77.622,101.157 Q81.462,102.758 83.062,105.707 Q84.662,108.655 84.662,114.708 L84.662,118.574 Q84.662,122.519 84.964,123.925 Q85.415,126.151 87.072,127.205 L87.072,128.65 L74.31,128.65 Q73.782,126.736 73.557,125.565 Q73.105,123.143 73.067,120.605 L72.992,115.255 Q72.917,109.748 71.053,107.913 Q69.19,106.078 64.07,106.078 z M71.11,95.611 Q74.573,93.971 74.573,89.129 Q74.573,83.896 71.222,82.099 Q69.34,81.084 65.576,81.084 L52.098,81.084 L52.098,96.549 L65.237,96.549 Q69.152,96.549 71.11,95.611 z" fill="#FF385C"/>
    <path d="M130.441,116.153 Q130.027,119.941 126.638,123.846 Q121.368,130.056 111.881,130.056 Q104.05,130.056 98.065,124.823 Q92.079,119.59 92.079,107.796 Q92.079,96.744 97.481,90.847 Q102.883,84.95 111.504,84.95 Q116.624,84.95 120.728,86.942 Q124.831,88.933 127.504,93.229 Q129.914,97.017 130.629,102.016 Q131.043,104.945 130.968,110.451 L102.883,110.451 Q103.109,116.856 106.761,119.434 Q108.982,121.035 112.107,121.035 Q115.42,121.035 117.49,119.082 Q118.62,118.028 119.485,116.153 z M119.824,103.11 Q119.561,98.697 117.245,96.412 Q114.93,94.127 111.504,94.127 Q107.777,94.127 105.726,96.549 Q103.674,98.97 103.147,103.11 z" fill="#FF385C"/>
    <path d="M157.509,94.323 Q152.05,94.323 150.017,99.126 Q148.963,101.665 148.963,105.609 L148.963,128.65 L138.271,128.65 L138.271,86.161 L148.624,86.161 L148.624,92.37 Q150.695,89.09 152.539,87.645 Q155.852,85.067 160.934,85.067 Q167.297,85.067 171.344,88.523 Q175.391,91.98 175.391,99.985 L175.391,128.65 L164.398,128.65 L164.398,102.758 Q164.398,99.4 163.532,97.603 Q161.951,94.323 157.509,94.323 z" fill="#FF385C"/>
  </g>
  <g id="Layer_2">
    <path d="M180.978,90.531 L206.742,90.86" fill-opacity="0" stroke="#FF385C" stroke-width="8"/>
    <path d="M241.283,129.348 Q230.468,129.348 224.753,123.242 Q217.087,115.751 217.087,101.657 Q217.087,87.28 224.753,80.073 Q230.468,73.967 241.283,73.967 Q252.098,73.967 257.813,80.073 Q265.444,87.28 265.444,101.657 Q265.444,115.751 257.813,123.242 Q252.098,129.348 241.283,129.348 z M251.242,115.289 Q254.904,110.497 254.904,101.657 Q254.904,92.853 251.225,88.042 Q247.546,83.232 241.283,83.232 Q235.02,83.232 231.29,88.025 Q227.56,92.817 227.56,101.657 Q227.56,110.497 231.29,115.289 Q235.02,120.082 241.283,120.082 Q247.546,120.082 251.242,115.289 z" fill="#FF385C"/>
    <path d="M297.085,122.425 Q296.949,122.603 296.4,123.49 Q295.853,124.378 295.101,125.052 Q292.807,127.182 290.668,127.963 Q288.53,128.744 285.655,128.744 Q277.373,128.744 274.498,122.567 Q272.89,119.159 272.89,112.52 L272.89,89.197 L282.883,89.197 L282.883,112.52 Q282.883,115.822 283.636,117.491 Q284.97,120.437 288.872,120.437 Q293.868,120.437 295.716,116.248 Q296.674,113.976 296.674,110.249 L296.674,89.197 L306.565,89.197 L306.565,127.892 L297.085,127.892 z" fill="#FF385C"/>
    <path d="M338.034,120.121 L338.034,128.809 L332.527,129.013 Q324.287,129.299 321.269,126.158 Q319.311,124.159 319.311,119.998 L319.311,92.627 L313.111,92.627 L313.111,84.346 L319.311,84.346 L319.311,71.946 L330.814,71.946 L330.814,84.346 L338.034,84.346 L338.034,92.627 L330.814,92.627 L330.814,116.123 Q330.814,118.856 331.508,119.529 Q332.201,120.202 335.75,120.202 Q336.28,120.202 336.872,120.182 Q337.463,120.161 338.034,120.121 z" fill="#FF385C"/>
  </g>
  <g id="Layer_3">
    <g>
      <path d="M28.157,175.027 L19.876,190.479 L19.876,199.783 L14.703,199.783 L14.703,190.479 L6.138,175.027 L12.234,175.027 L17.374,185.809 L22.295,175.027 z" fill="#FF385C"/>
      <path d="M42.063,200.472 Q36.756,200.472 33.951,197.583 Q30.189,194.039 30.189,187.371 Q30.189,180.569 33.951,177.16 Q36.756,174.271 42.063,174.271 Q47.371,174.271 50.176,177.16 Q53.921,180.569 53.921,187.371 Q53.921,194.039 50.176,197.583 Q47.371,200.472 42.063,200.472 z M46.951,193.821 Q48.748,191.553 48.748,187.371 Q48.748,183.206 46.943,180.93 Q45.137,178.654 42.063,178.654 Q38.99,178.654 37.159,180.922 Q35.328,183.189 35.328,187.371 Q35.328,191.553 37.159,193.821 Q38.99,196.088 42.063,196.088 Q45.137,196.088 46.951,193.821 z" fill="#FF385C"/>
      <path d="M72.514,190.243 L72.514,175.027 L77.771,175.027 L77.771,190.243 Q77.771,194.19 76.545,196.391 Q74.261,200.422 67.828,200.422 Q61.395,200.422 59.094,196.391 Q57.868,194.19 57.868,190.243 L57.868,175.027 L63.125,175.027 L63.125,190.243 Q63.125,192.796 63.73,193.972 Q64.67,196.055 67.828,196.055 Q70.969,196.055 71.909,193.972 Q72.514,192.796 72.514,190.243 z" fill="#FF385C"/>
      <path d="M93.223,190.075 L87.882,190.075 L87.882,199.783 L82.826,199.783 L82.826,175.027 L94.97,175.027 Q97.573,175.077 98.975,175.665 Q100.378,176.253 101.352,177.395 Q102.158,178.335 102.628,179.477 Q103.099,180.619 103.099,182.081 Q103.099,183.844 102.209,185.549 Q101.318,187.254 99.269,187.959 Q100.982,188.648 101.696,189.916 Q102.41,191.184 102.41,193.787 L102.41,195.45 Q102.41,197.146 102.544,197.751 Q102.746,198.708 103.485,199.162 L103.485,199.783 L97.791,199.783 Q97.556,198.96 97.455,198.456 Q97.254,197.415 97.237,196.323 L97.203,194.022 Q97.17,191.654 96.338,190.865 Q95.507,190.075 93.223,190.075 z M96.364,185.574 Q97.909,184.869 97.909,182.786 Q97.909,180.536 96.414,179.763 Q95.574,179.326 93.895,179.326 L87.882,179.326 L87.882,185.977 L93.744,185.977 Q95.49,185.977 96.364,185.574 z" fill="#FF385C"/>
      <path d="M127.626,190.882 L122.369,190.882 L122.369,199.783 L117.23,199.783 L117.23,175.027 L128.012,175.027 Q131.741,175.027 133.958,176.941 Q136.175,178.856 136.175,182.87 Q136.175,187.254 133.958,189.068 Q131.741,190.882 127.626,190.882 z M130.045,185.725 Q131.052,184.835 131.052,182.904 Q131.052,180.972 130.036,180.149 Q129.02,179.326 127.189,179.326 L122.369,179.326 L122.369,186.616 L127.189,186.616 Q129.02,186.616 130.045,185.725 z" fill="#FF385C"/>
      <path d="M150.569,190.075 L145.228,190.075 L145.228,199.783 L140.172,199.783 L140.172,175.027 L152.316,175.027 Q154.919,175.077 156.321,175.665 Q157.724,176.253 158.698,177.395 Q159.504,178.335 159.974,179.477 Q160.445,180.619 160.445,182.081 Q160.445,183.844 159.555,185.549 Q158.664,187.254 156.615,187.959 Q158.328,188.648 159.042,189.916 Q159.756,191.184 159.756,193.787 L159.756,195.45 Q159.756,197.146 159.89,197.751 Q160.092,198.708 160.831,199.162 L160.831,199.783 L155.137,199.783 Q154.902,198.96 154.801,198.456 Q154.6,197.415 154.583,196.323 L154.549,194.022 Q154.516,191.654 153.684,190.865 Q152.853,190.075 150.569,190.075 z M153.71,185.574 Q155.255,184.869 155.255,182.786 Q155.255,180.536 153.76,179.763 Q152.92,179.326 151.241,179.326 L145.228,179.326 L145.228,185.977 L151.09,185.977 Q152.836,185.977 153.71,185.574 z" fill="#FF385C"/>
      <path d="M175.846,200.472 Q170.539,200.472 167.734,197.583 Q163.972,194.039 163.972,187.371 Q163.972,180.569 167.734,177.16 Q170.539,174.271 175.846,174.271 Q181.154,174.271 183.959,177.16 Q187.704,180.569 187.704,187.371 Q187.704,194.039 183.959,197.583 Q181.154,200.472 175.846,200.472 z M180.734,193.821 Q182.531,191.553 182.531,187.371 Q182.531,183.206 180.725,180.93 Q178.92,178.654 175.846,178.654 Q172.773,178.654 170.942,180.922 Q169.111,183.189 169.111,187.371 Q169.111,191.553 170.942,193.821 Q172.773,196.088 175.846,196.088 Q178.92,196.088 180.734,193.821 z" fill="#FF385C"/>
      <path d="M202.165,190.882 L196.908,190.882 L196.908,199.783 L191.769,199.783 L191.769,175.027 L202.551,175.027 Q206.28,175.027 208.497,176.941 Q210.714,178.856 210.714,182.87 Q210.714,187.254 208.497,189.068 Q206.28,190.882 202.165,190.882 z M204.584,185.725 Q205.591,184.835 205.591,182.904 Q205.591,180.972 204.575,180.149 Q203.559,179.326 201.728,179.326 L196.908,179.326 L196.908,186.616 L201.728,186.616 Q203.559,186.616 204.584,185.725 z" fill="#FF385C"/>
      <path d="M231.826,188.967 L219.8,188.967 L219.8,195.332 L233.506,195.332 L233.506,199.783 L214.745,199.783 L214.745,175.027 L232.901,175.027 L232.901,179.41 L219.8,179.41 L219.8,184.667 L231.826,184.667 z" fill="#FF385C"/>
      <path d="M248.051,190.075 L242.71,190.075 L242.71,199.783 L237.654,199.783 L237.654,175.027 L249.797,175.027 Q252.401,175.077 253.803,175.665 Q255.206,176.253 256.18,177.395 Q256.986,178.335 257.456,179.477 Q257.927,180.619 257.927,182.081 Q257.927,183.844 257.036,185.549 Q256.146,187.254 254.097,187.959 Q255.81,188.648 256.524,189.916 Q257.238,191.184 257.238,193.787 L257.238,195.45 Q257.238,197.146 257.372,197.751 Q257.574,198.708 258.313,199.162 L258.313,199.783 L252.619,199.783 Q252.384,198.96 252.283,198.456 Q252.082,197.415 252.065,196.323 L252.031,194.022 Q251.998,191.654 251.166,190.865 Q250.335,190.075 248.051,190.075 z M251.191,185.574 Q252.737,184.869 252.737,182.786 Q252.737,180.536 251.242,179.763 Q250.402,179.326 248.723,179.326 L242.71,179.326 L242.71,185.977 L248.571,185.977 Q250.318,185.977 251.191,185.574 z" fill="#FF385C"/>
      <path d="M280.365,175.027 L280.365,179.41 L272.959,179.41 L272.959,199.783 L267.752,199.783 L267.752,179.41 L260.312,179.41 L260.312,175.027 z" fill="#FF385C"/>
      <path d="M303.376,175.027 L295.095,190.479 L295.095,199.783 L289.922,199.783 L289.922,190.479 L281.356,175.027 L287.453,175.027 L292.593,185.809 L297.514,175.027 z" fill="#FF385C"/>
    </g>
  </g>
</svg>
